<svg xmlns="http://www.w3.org/2000/svg" version="1.1" width="1024px" height="1024px" style="shape-rendering:geometricPrecision; text-rendering:geometricPrecision; image-rendering:optimizeQuality; fill-rule:evenodd; clip-rule:evenodd" xmlns:xlink="http://www.w3.org/1999/xlink">
<g><path style="opacity:0.004" fill="#494946" d="M 336.5,148.5 C 337.833,149.167 337.833,149.167 336.5,148.5 Z"/></g>
<g><path style="opacity:0.999" fill="#020202" d="M 405.5,152.5 C 406.568,153.434 407.901,153.768 409.5,153.5C 410.919,154.451 412.585,154.784 414.5,154.5C 417.867,154.457 421.201,154.79 424.5,155.5C 426.593,155.514 428.426,154.848 430,153.5C 431.779,155.017 431.279,155.851 428.5,156C 431.757,157.043 435.09,157.543 438.5,157.5C 442.921,159.102 447.588,160.102 452.5,160.5C 455.219,161.913 458.219,162.58 461.5,162.5C 462.167,163.833 462.833,163.833 463.5,162.5C 468.795,165.267 474.462,167.267 480.5,168.5C 481.209,169.404 482.209,169.737 483.5,169.5C 485.214,170.738 487.214,171.405 489.5,171.5C 495.564,174.566 501.564,176.899 507.5,178.5C 511.645,180.736 515.978,182.736 520.5,184.5C 521.209,185.404 522.209,185.737 523.5,185.5C 525.579,188.018 528.079,189.018 531,188.5C 533.449,190.732 536.116,192.732 539,194.5C 539.333,193.833 539.667,193.167 540,192.5C 540.236,194.119 541.069,195.119 542.5,195.5C 544.822,197.664 547.489,199.331 550.5,200.5C 551.29,201.401 552.29,202.068 553.5,202.5C 553.842,203.338 554.508,203.672 555.5,203.5C 557.822,205.664 560.489,207.331 563.5,208.5C 566.952,211.399 570.618,214.066 574.5,216.5C 577.835,219.601 581.335,222.601 585,225.5C 586.84,224.167 587.34,224.334 586.5,226C 587.044,226.717 587.711,227.217 588.5,227.5C 590.616,228.345 592.616,230.011 594.5,232.5C 597.808,235.471 601.141,238.471 604.5,241.5C 607.5,245.167 610.833,248.5 614.5,251.5C 616.472,255.105 619.139,258.105 622.5,260.5C 623.561,262.532 625.228,263.866 627.5,264.5C 627.291,265.086 626.957,265.586 626.5,266C 628.4,268.335 630.4,270.502 632.5,272.5C 633.786,275.117 635.453,277.45 637.5,279.5C 641.115,285.777 645.115,291.777 649.5,297.5C 650.584,300.004 651.917,302.337 653.5,304.5C 653.328,305.492 653.662,306.158 654.5,306.5C 658.837,315.841 663.171,325.174 667.5,334.5C 667.66,336.153 668.326,337.486 669.5,338.5C 671.463,346.051 673.796,353.385 676.5,360.5C 676.232,362.099 676.566,363.432 677.5,364.5C 677.232,366.099 677.566,367.432 678.5,368.5C 680.912,379.717 682.579,391.05 683.5,402.5C 683.232,405.119 683.565,407.619 684.5,410C 691.826,410.5 699.159,410.666 706.5,410.5C 733.051,412.147 759.051,416.814 784.5,424.5C 787.215,426.072 790.215,427.072 793.5,427.5C 800.004,430.841 806.004,433.175 811.5,434.5C 820.795,439.147 830.128,443.814 839.5,448.5C 843.904,451.559 848.571,454.225 853.5,456.5C 857.1,458.92 860.6,461.586 864,464.5C 865.049,463.483 866.216,463.316 867.5,464C 865.071,464.451 864.904,465.285 867,466.5C 867.383,465.944 867.883,465.611 868.5,465.5C 868.427,467.027 869.094,468.027 870.5,468.5C 873.981,471.409 877.648,474.075 881.5,476.5C 882.5,478.167 883.833,479.5 885.5,480.5C 886.795,481.488 888.128,482.488 889.5,483.5C 893.5,488.167 897.833,492.5 902.5,496.5C 903.167,497.833 904.167,498.833 905.5,499.5C 906.08,501.749 907.413,503.415 909.5,504.5C 912.152,508.482 915.152,512.149 918.5,515.5C 920.782,519.777 923.449,523.777 926.5,527.5C 928.575,530.646 930.408,533.979 932,537.5C 932.667,538.833 933.333,538.833 934,537.5C 933.609,540.094 934.443,542.427 936.5,544.5C 936.992,546.819 937.992,548.819 939.5,550.5C 940.659,554.151 942.326,557.485 944.5,560.5C 945.98,566.109 947.98,571.443 950.5,576.5C 968.095,631.831 965.429,686.164 942.5,739.5C 936.102,751.294 929.435,762.961 922.5,774.5C 918.179,780.462 913.845,786.462 909.5,792.5C 904.017,798.822 898.684,805.322 893.5,812C 895.138,816.767 897.138,821.267 899.5,825.5C 903.561,836.847 907.728,848.181 912,859.5C 914.021,882.826 903.354,896.159 880,899.5C 870.551,897.739 861.385,895.072 852.5,891.5C 847.443,888.98 842.109,886.98 836.5,885.5C 835.791,884.596 834.791,884.263 833.5,884.5C 826.225,880.703 818.558,877.703 810.5,875.5C 806.692,873.188 802.526,871.521 798,870.5C 722.294,896.959 646.128,898.293 569.5,874.5C 564.443,871.98 559.109,869.98 553.5,868.5C 552.22,867.069 550.553,866.402 548.5,866.5C 547.486,865.326 546.153,864.66 544.5,864.5C 540.151,861.659 535.484,859.326 530.5,857.5C 527.979,855.981 525.479,854.314 523,852.5C 520.827,855.277 520.327,855.11 521.5,852C 517.112,849.477 512.778,846.977 508.5,844.5C 508.027,843.094 507.027,842.427 505.5,842.5C 504.421,840.457 502.754,839.124 500.5,838.5C 494.81,833.482 488.81,828.815 482.5,824.5C 478.859,821.195 475.192,817.862 471.5,814.5C 470.5,812.833 469.167,811.5 467.5,810.5C 467.167,809.5 466.5,808.833 465.5,808.5C 460.509,802.177 455.176,796.177 449.5,790.5C 448.299,788.091 446.633,786.091 444.5,784.5C 443.974,782.77 442.974,781.436 441.5,780.5C 440.944,778.491 439.611,776.491 437.5,774.5C 437.068,773.29 436.401,772.29 435.5,771.5C 435.5,770.833 435.167,770.5 434.5,770.5C 434.068,769.29 433.401,768.29 432.5,767.5C 431.416,764.996 430.083,762.663 428.5,760.5C 428.244,758.224 426.91,757.057 424.5,757C 425.167,756.667 425.833,756.333 426.5,756C 425.182,753.176 423.515,750.676 421.5,748.5C 420.958,745.088 419.625,742.088 417.5,739.5C 416.366,734.565 414.199,730.231 411,726.5C 411.096,724.619 410.929,722.953 410.5,721.5C 408.931,715.629 407.265,709.795 405.5,704C 390.276,704.48 375.109,705.313 360,706.5C 311.607,707.749 264.44,700.083 218.5,683.5C 211.094,685.408 204.094,688.075 197.5,691.5C 196.508,691.328 195.842,691.662 195.5,692.5C 180.555,697.647 165.888,703.314 151.5,709.5C 144.068,712.275 136.401,714.275 128.5,715.5C 122.246,714.636 116.246,712.969 110.5,710.5C 109.71,709.599 108.71,708.932 107.5,708.5C 104.833,705.833 102.167,703.167 99.5,700.5C 99.0679,699.29 98.4013,698.29 97.5,697.5C 93.9303,689.086 93.097,680.419 95,671.5C 101.272,654.641 107.439,638.141 113.5,622C 113.056,620.238 112.556,620.405 112,622.5C 111.217,620.567 111.717,619.067 113.5,618C 109.631,613.963 105.631,610.13 101.5,606.5C 101.167,605.5 100.5,604.833 99.5,604.5C 99.1667,603.5 98.5,602.833 97.5,602.5C 96.8763,600.246 95.543,598.579 93.5,597.5C 93.1667,596.5 92.5,595.833 91.5,595.5C 91.1667,594.167 90.8333,594.167 90.5,595.5C 89.8333,595.833 89.1667,596.167 88.5,596.5C 88.5,595.833 88.5,595.167 88.5,594.5C 91.1667,593.5 91.1667,592.5 88.5,591.5C 88.2624,589.596 87.2624,588.262 85.5,587.5C 80.1535,579.463 74.8202,571.463 69.5,563.5C 69.6716,562.508 69.3382,561.842 68.5,561.5C 67.8897,559.566 66.8897,557.899 65.5,556.5C 64.6743,553.515 63.341,550.849 61.5,548.5C 58.8626,541.554 55.8626,534.887 52.5,528.5C 52.6716,527.508 52.3382,526.842 51.5,526.5C 49.8704,519.949 47.8704,513.616 45.5,507.5C 45.7373,506.209 45.404,505.209 44.5,504.5C 44.4771,501.543 43.4771,499.043 41.5,497C 42.5724,493.956 41.9057,491.289 39.5,489C 40.0814,488.107 40.4148,487.107 40.5,486C 38.9018,479.245 37.9018,472.412 37.5,465.5C 37.8016,462.941 37.4682,460.607 36.5,458.5C 34.7463,444.57 34.2463,430.57 35,416.5C 36.1327,401.406 37.966,386.406 40.5,371.5C 44.2265,359.195 47.8931,347.195 51.5,335.5C 57.6798,320.806 64.6798,306.473 72.5,292.5C 77.5235,286.133 82.1901,279.466 86.5,272.5C 88.2624,271.738 89.2624,270.404 89.5,268.5C 90.1667,268.5 90.5,268.167 90.5,267.5C 95.5103,262.488 100.177,257.155 104.5,251.5C 105.833,250.833 106.833,249.833 107.5,248.5C 109.5,247.167 111.167,245.5 112.5,243.5C 113.833,242.833 114.833,241.833 115.5,240.5C 118.5,238.167 121.167,235.5 123.5,232.5C 130.291,227.548 136.958,222.382 143.5,217C 149.788,212.588 156.455,207.755 163.5,202.5C 169.668,199.92 175.335,196.586 180.5,192.5C 184.818,191.008 188.818,189.008 192.5,186.5C 198.357,184.07 204.023,181.403 209.5,178.5C 211.403,178.204 213.07,177.537 214.5,176.5C 219.986,174.675 225.319,172.675 230.5,170.5C 238.957,167.974 247.291,165.307 255.5,162.5C 271.848,158.613 288.181,155.28 304.5,152.5C 317.163,151.487 329.996,150.487 343,149.5C 363.481,149.889 384.314,150.889 405.5,152.5 Z"/></g>
<g><path style="opacity:0.004" fill="#444341" d="M 286.5,151.5 C 287.833,152.167 287.833,152.167 286.5,151.5 Z"/></g>
<g><path style="opacity:0.004" fill="#444342" d="M 297.5,152.5 C 298.251,151.427 299.251,151.26 300.5,152C 299.552,152.483 298.552,152.649 297.5,152.5 Z"/></g>
<g><path style="opacity:0.012" fill="#43453e" d="M 304.5,152.5 C 303.833,151.167 303.833,151.167 304.5,152.5 Z"/></g>
<g><path style="opacity:0.008" fill="#3e3c39" d="M 405.5,151.5 C 406.833,152.167 406.833,152.167 405.5,151.5 Z"/></g>
<g><path style="opacity:0.016" fill="#474645" d="M 414.5,154.5 C 412.585,154.784 410.919,154.451 409.5,153.5C 410.873,153.657 412.207,153.49 413.5,153C 411.5,152.667 409.5,152.333 407.5,152C 411.807,151.701 415.974,151.534 420,151.5C 420.432,152.6 419.932,153.267 418.5,153.5C 417.446,153.32 416.446,152.987 415.5,152.5C 414.702,152.957 414.369,153.624 414.5,154.5 Z"/></g>
<g><path style="opacity:0.004" fill="#434441" d="M 290.5,153.5 C 290.897,152.475 291.563,152.308 292.5,153C 291.906,153.464 291.239,153.631 290.5,153.5 Z"/></g>
<g><path style="opacity:0.008" fill="#434341" d="M 293.5,152.5 C 294.833,153.167 294.833,153.167 293.5,152.5 Z"/></g>
<g><path style="opacity:0.004" fill="#464542" d="M 285.5,154.5 C 285.897,153.475 286.563,153.308 287.5,154C 286.906,154.464 286.239,154.631 285.5,154.5 Z"/></g>
<g><path style="opacity:0.004" fill="#40423c" d="M 422.5,153.5 C 423.833,154.167 423.833,154.167 422.5,153.5 Z"/></g>
<g><path style="opacity:0.004" fill="#464542" d="M 425.5,153.5 C 426.833,154.167 426.833,154.167 425.5,153.5 Z"/></g>
<g><path style="opacity:0.004" fill="#454541" d="M 278.5,154.5 C 279.833,155.167 279.833,155.167 278.5,154.5 Z"/></g>
<g><path style="opacity:0.008" fill="#454740" d="M 281.5,154.5 C 282.833,155.167 282.833,155.167 281.5,154.5 Z"/></g>
<g><path style="opacity:0.004" fill="#474542" d="M 432.5,155.5 C 432.897,154.475 433.563,154.308 434.5,155C 433.906,155.464 433.239,155.631 432.5,155.5 Z"/></g>
<g><path style="opacity:0.008" fill="#444643" d="M 435.5,155.5 C 436.833,156.167 436.833,156.167 435.5,155.5 Z"/></g>
<g><path style="opacity:0.008" fill="#474644" d="M 438.5,156.5 C 439.833,157.167 439.833,157.167 438.5,156.5 Z"/></g>
<g><path style="opacity:0.008" fill="#3e403d" d="M 249.5,159.5 C 250.833,160.167 250.833,160.167 249.5,159.5 Z"/></g>
<g><path style="opacity:0.008" fill="#3d3f3d" d="M 255.5,160.5 C 254.833,159.167 254.833,159.167 255.5,160.5 Z"/></g>
<g><path style="opacity:0.004" fill="#3d3f3c" d="M 258.5,159.5 C 259.833,160.167 259.833,160.167 258.5,159.5 Z"/></g>
<g><path style="opacity:0.004" fill="#3e3e3c" d="M 260.5,159.5 C 261.833,160.167 261.833,160.167 260.5,159.5 Z"/></g>
<g><path style="opacity:0.004" fill="#403e3c" d="M 452.5,160.5 C 453.251,159.427 454.251,159.26 455.5,160C 454.552,160.483 453.552,160.649 452.5,160.5 Z"/></g>
<g><path style="opacity:0.008" fill="#3f3f3c" d="M 255.5,160.5 C 256.833,161.167 256.833,161.167 255.5,160.5 Z"/></g>
<g><path style="opacity:0.004" fill="#3d3e3c" d="M 458.5,160.5 C 459.833,161.167 459.833,161.167 458.5,160.5 Z"/></g>
<g><path style="opacity:0.008" fill="#3f3e3d" d="M 463.5,162.5 C 462.833,162.5 462.167,162.5 461.5,162.5C 462.695,158.714 463.362,158.714 463.5,162.5 Z"/></g>
<g><path style="opacity:0.008" fill="#403f3e" d="M 255.5,161.5 C 255.5,161.833 255.5,162.167 255.5,162.5C 252.833,162.167 252.833,161.833 255.5,161.5 Z"/></g>
<g><path style="opacity:0.008" fill="#403f3c" d="M 247.5,163.5 C 248.251,162.427 249.251,162.26 250.5,163C 249.552,163.483 248.552,163.649 247.5,163.5 Z"/></g>
<g><path style="opacity:0.004" fill="#444341" d="M 465.5,161.5 C 466.289,161.783 466.956,162.283 467.5,163C 466.184,163.528 465.517,163.028 465.5,161.5 Z"/></g>
<g><path style="opacity:0.004" fill="#3f413f" d="M 247.5,163.5 C 246.833,164.167 246.833,164.167 247.5,163.5 Z"/></g>
<g><path style="opacity:0.004" fill="#434340" d="M 469.5,163.5 C 470.833,164.167 470.833,164.167 469.5,163.5 Z"/></g>
<g><path style="opacity:0.004" fill="#3b3a3a" d="M 224.5,167.5 C 225.833,168.167 225.833,168.167 224.5,167.5 Z"/></g>
<g><path style="opacity:0.004" fill="#393938" d="M 232.5,167.5 C 233.833,168.167 233.833,168.167 232.5,167.5 Z"/></g>
<g><path style="opacity:0.012" fill="#424140" d="M 480.5,167.5 C 481.833,168.167 481.833,168.167 480.5,167.5 Z"/></g>
<g><path style="opacity:0.004" fill="#43403e" d="M 488.5,167.5 C 489.833,168.167 489.833,168.167 488.5,167.5 Z"/></g>
<g><path style="opacity:0.004" fill="#3b3b39" d="M 232.5,168.5 C 232.158,169.338 231.492,169.672 230.5,169.5C 230.409,167.302 231.075,166.969 232.5,168.5 Z"/></g>
<g><path style="opacity:0.012" fill="#3e403b" d="M 483.5,168.5 C 484.833,169.167 484.833,169.167 483.5,168.5 Z"/></g>
<g><path style="opacity:0.008" fill="#3f3e3b" d="M 486.5,167.5 C 487.525,167.897 487.692,168.563 487,169.5C 486.536,168.906 486.369,168.239 486.5,167.5 Z"/></g>
<g><path style="opacity:0.004" fill="#3c3939" d="M 226.5,170.5 C 226.897,169.475 227.563,169.308 228.5,170C 227.906,170.464 227.239,170.631 226.5,170.5 Z"/></g>
<g><path style="opacity:0.012" fill="#3a3a38" d="M 230.5,169.5 C 230.5,169.833 230.5,170.167 230.5,170.5C 229.83,170.019 229.83,169.685 230.5,169.5 Z"/></g>
<g><path style="opacity:0.012" fill="#3d3a39" d="M 223.5,170.5 C 224.833,171.167 224.833,171.167 223.5,170.5 Z"/></g>
<g><path style="opacity:0.004" fill="#41413d" d="M 489.5,170.5 C 490.833,171.167 490.833,171.167 489.5,170.5 Z"/></g>
<g><path style="opacity:0.004" fill="#393636" d="M 214.5,176.5 C 213.761,176.631 213.094,176.464 212.5,176C 213.437,175.308 214.103,175.475 214.5,176.5 Z"/></g>
<g><path style="opacity:0.004" fill="#3a3a38" d="M 206.5,176.5 C 207.833,177.167 207.833,177.167 206.5,176.5 Z"/></g>
<g><path style="opacity:0.004" fill="#333331" d="M 209.5,178.5 C 208.833,177.167 208.833,177.167 209.5,178.5 Z"/></g>
<g><path style="opacity:0.004" fill="#3c3c3a" d="M 507.5,177.5 C 508.833,178.167 508.833,178.167 507.5,177.5 Z"/></g>
<g><path style="opacity:0.004" fill="#42423e" d="M 511.5,178.5 C 512.833,179.167 512.833,179.167 511.5,178.5 Z"/></g>
<g><path style="opacity:0.004" fill="#363635" d="M 194.5,183.5 C 195.833,184.167 195.833,184.167 194.5,183.5 Z"/></g>
<g><path style="opacity:0.02" fill="#393937" d="M 520.5,183.5 C 521.833,184.167 521.833,184.167 520.5,183.5 Z"/></g>
<g><path style="opacity:0.004" fill="#383735" d="M 183.5,184.5 C 184.833,185.167 184.833,185.167 183.5,184.5 Z"/></g>
<g><path style="opacity:0.008" fill="#373735" d="M 192.5,184.5 C 193.833,185.167 193.833,185.167 192.5,184.5 Z"/></g>
<g><path style="opacity:0.012" fill="#3b3c39" d="M 523.5,184.5 C 524.833,185.167 524.833,185.167 523.5,184.5 Z"/></g>
<g><path style="opacity:0.004" fill="#3c3a38" d="M 526.5,184.5 C 527.833,185.167 527.833,185.167 526.5,184.5 Z"/></g>
<g><path style="opacity:0.004" fill="#323231" d="M 192.5,185.5 C 192.5,185.833 192.5,186.167 192.5,186.5C 191.83,186.019 191.83,185.685 192.5,185.5 Z"/></g>
<g><path style="opacity:0.004" fill="#403f3c" d="M 527.5,186.5 C 528.833,187.167 528.833,187.167 527.5,186.5 Z"/></g>
<g><path style="opacity:0.999" fill="#feefe0" d="M 559.5,252.5 C 581.997,270.831 601.164,292.165 617,316.5C 633.252,345.088 643.418,375.755 647.5,408.5C 640.525,410.278 634.191,411.945 628.5,413.5C 577.4,422.388 531.067,442.222 489.5,473C 428.22,522.74 398.72,587.24 401,666.5C 395.552,667.292 390.052,667.959 384.5,668.5C 364.337,667.668 344.004,667.168 323.5,667C 289.48,664.697 256.813,656.864 225.5,643.5C 224.893,643.624 224.56,643.957 224.5,644.5C 221.355,642.809 218.021,642.309 214.5,643C 187.376,654.647 160.209,666.147 133,677.5C 140.737,655.635 148.904,633.801 157.5,612C 156.852,610.56 156.519,609.06 156.5,607.5C 157.501,606.211 157.334,604.878 156,603.5C 106.912,564.34 79.2449,513.34 73,450.5C 72.5065,452.134 72.3398,453.801 72.5,455.5C 64.0832,376.574 89.7498,311.074 149.5,259C 209.415,209.748 278.415,185.915 356.5,187.5C 428.176,186.342 493.51,205.842 552.5,246C 555.288,247.719 557.621,249.885 559.5,252.5 Z"/></g>
<g><path style="opacity:0.016" fill="#333332" d="M 180.5,192.5 C 179.833,191.167 179.833,191.167 180.5,192.5 Z"/></g>
<g><path style="opacity:0.004" fill="#313331" d="M 175.5,193.5 C 176.833,194.167 176.833,194.167 175.5,193.5 Z"/></g>
<g><path style="opacity:0.008" fill="#363835" d="M 542.5,194.5 C 543.833,195.167 543.833,195.167 542.5,194.5 Z"/></g>
<g><path style="opacity:0.004" fill="#343431" d="M 165.5,199.5 C 166.833,200.167 166.833,200.167 165.5,199.5 Z"/></g>
<g><path style="opacity:0.004" fill="#393835" d="M 550.5,199.5 C 551.833,200.167 551.833,200.167 550.5,199.5 Z"/></g>
<g><path style="opacity:0.004" fill="#393735" d="M 553.5,202.5 C 553.369,201.761 553.536,201.094 554,200.5C 554.692,201.437 554.525,202.103 553.5,202.5 Z"/></g>
<g><path style="opacity:0.008" fill="#32332f" d="M 163.5,202.5 C 162.833,201.167 162.833,201.167 163.5,202.5 Z"/></g>
<g><path style="opacity:0.012" fill="#363535" d="M 555.5,202.5 C 556.833,203.167 556.833,203.167 555.5,202.5 Z"/></g>
<g><path style="opacity:0.02" fill="#313433" d="M 563.5,207.5 C 564.833,208.167 564.833,208.167 563.5,207.5 Z"/></g>
<g><path style="opacity:0.004" fill="#303332" d="M 565.5,208.5 C 566.833,209.167 566.833,209.167 565.5,208.5 Z"/></g>
<g><path style="opacity:0.004" fill="#343432" d="M 136.5,215.5 C 137.833,216.167 137.833,216.167 136.5,215.5 Z"/></g>
<g><path style="opacity:0.004" fill="#363332" d="M 139.5,215.5 C 140.833,216.167 140.833,216.167 139.5,215.5 Z"/></g>
<g><path style="opacity:0.012" fill="#333230" d="M 574.5,215.5 C 575.833,216.167 575.833,216.167 574.5,215.5 Z"/></g>
<g><path style="opacity:0.004" fill="#333331" d="M 137.5,217.5 C 138.833,218.167 138.833,218.167 137.5,217.5 Z"/></g>
<g><path style="opacity:0.008" fill="#333433" d="M 135.5,218.5 C 136.833,219.167 136.833,219.167 135.5,218.5 Z"/></g>
<g><path style="opacity:0.008" fill="#323431" d="M 135.5,220.5 C 136.833,221.167 136.833,221.167 135.5,220.5 Z"/></g>
<g><path style="opacity:0.004" fill="#33322f" d="M 127.5,226.5 C 128.833,227.167 128.833,227.167 127.5,226.5 Z"/></g>
<g><path style="opacity:0.004" fill="#323130" d="M 588.5,227.5 C 588.897,226.475 589.563,226.308 590.5,227C 589.906,227.464 589.239,227.631 588.5,227.5 Z"/></g>
<g><path style="opacity:0.012" fill="#31312d" d="M 123.5,232.5 C 122.833,231.167 122.833,231.167 123.5,232.5 Z"/></g>
<g><path style="opacity:0.008" fill="#2f3130" d="M 594.5,231.5 C 595.833,232.167 595.833,232.167 594.5,231.5 Z"/></g>
<g><path style="opacity:0.004" fill="#313132" d="M 115.5,240.5 C 114.127,240.657 112.793,240.49 111.5,240C 113.066,239.235 114.399,239.402 115.5,240.5 Z"/></g>
<g><path style="opacity:0.004" fill="#2e2d2c" d="M 606.5,239.5 C 607.833,240.167 607.833,240.167 606.5,239.5 Z"/></g>
<g><path style="opacity:0.008" fill="#313130" d="M 604.5,240.5 C 605.833,241.167 605.833,241.167 604.5,240.5 Z"/></g>
<g><path style="opacity:0.012" fill="#323132" d="M 112.5,243.5 C 111.475,243.103 111.308,242.437 112,241.5C 112.464,242.094 112.631,242.761 112.5,243.5 Z"/></g>
<g><path style="opacity:0.004" fill="#30302d" d="M 103.5,247.5 C 104.833,248.167 104.833,248.167 103.5,247.5 Z"/></g>
<g><path style="opacity:0.008" fill="#333233" d="M 107.5,248.5 C 106.761,248.631 106.094,248.464 105.5,248C 106.437,247.308 107.103,247.475 107.5,248.5 Z"/></g>
<g><path style="opacity:0.024" fill="#343033" d="M 104.5,251.5 C 103.475,251.103 103.308,250.437 104,249.5C 104.464,250.094 104.631,250.761 104.5,251.5 Z"/></g>
<g><path style="opacity:0.016" fill="#2f2f2e" d="M 614.5,250.5 C 615.833,251.167 615.833,251.167 614.5,250.5 Z"/></g>
<g><path style="opacity:0.004" fill="#323231" d="M 95.5,256.5 C 96.525,256.897 96.6917,257.563 96,258.5C 95.5357,257.906 95.369,257.239 95.5,256.5 Z"/></g>
<g><path style="opacity:0.004" fill="#2f2e2d" d="M 622.5,259.5 C 623.833,260.167 623.833,260.167 622.5,259.5 Z"/></g>
<g><path style="opacity:0.005" fill="#333331" d="M 90.5,267.5 C 89.8333,267.5 89.5,267.833 89.5,268.5C 87.9153,267.998 87.4153,266.998 88,265.5C 88.6667,266.833 89.3333,266.833 90,265.5C 90.4643,266.094 90.631,266.761 90.5,267.5 Z"/></g>
<g><path style="opacity:0.007" fill="#363333" d="M 79.5,272.5 C 80.2506,271.427 81.2506,271.26 82.5,272C 81.6477,273.728 80.6477,273.895 79.5,272.5 Z"/></g>
<g><path style="opacity:0.008" fill="#343432" d="M 86.5,272.5 C 85.8333,271.167 85.8333,271.167 86.5,272.5 Z"/></g>
<g><path style="opacity:0.008" fill="#373433" d="M 632.5,271.5 C 633.833,272.167 633.833,272.167 632.5,271.5 Z"/></g>
<g><path style="opacity:0.004" fill="#353434" d="M 635.5,274.5 C 636.833,275.167 636.833,275.167 635.5,274.5 Z"/></g>
<g><path style="opacity:0.004" fill="#363632" d="M 638.5,279.5 C 637.833,278.167 637.833,278.167 638.5,279.5 Z"/></g>
<g><path style="opacity:0.004" fill="#333234" d="M 638.5,279.5 C 639.833,280.167 639.833,280.167 638.5,279.5 Z"/></g>
<g><path style="opacity:1" fill="#f5f3f0" d="M 559.5,252.5 C 612.188,291.836 642.188,344.503 649.5,410.5C 642.541,411.827 635.541,412.827 628.5,413.5C 634.191,411.945 640.525,410.278 647.5,408.5C 643.418,375.755 633.252,345.088 617,316.5C 601.164,292.165 581.997,270.831 559.5,252.5 Z"/></g>
<g><path style="opacity:0.012" fill="#373835" d="M 644.5,287.5 C 645.833,288.167 645.833,288.167 644.5,287.5 Z"/></g>
<g><path style="opacity:0.999" fill="#010101" d="M 240.5,288.5 C 255.691,286.248 264.691,292.581 267.5,307.5C 265.603,322.886 256.936,329.386 241.5,327C 229.646,321.791 225.479,312.958 229,300.5C 231.355,294.981 235.188,290.981 240.5,288.5 Z"/></g>
<g><path style="opacity:0.007" fill="#353433" d="M 72.5,292.5 C 71.4265,291.749 71.2599,290.749 72,289.5C 72.4828,290.448 72.6495,291.448 72.5,292.5 Z"/></g>
<g><path style="opacity:0.999" fill="#020101" d="M 464.5,291.5 C 476.485,289.574 484.651,294.24 489,305.5C 490.899,320.43 484.399,328.764 469.5,330.5C 454.118,327.742 448.284,318.742 452,303.5C 454.769,297.895 458.936,293.895 464.5,291.5 Z"/></g>
<g><path style="opacity:0.006" fill="#383636" d="M 66.5,296.5 C 65.8333,296.5 65.5,296.833 65.5,297.5C 63.0248,297.253 63.0248,296.587 65.5,295.5C 66.1067,295.624 66.44,295.957 66.5,296.5 Z"/></g>
<g><path style="opacity:0.004" fill="#373933" d="M 66.5,296.5 C 67.8333,297.167 67.8333,297.167 66.5,296.5 Z"/></g>
<g><path style="opacity:0.008" fill="#393834" d="M 649.5,296.5 C 650.833,297.167 650.833,297.167 649.5,296.5 Z"/></g>
<g><path style="opacity:0.004" fill="#383635" d="M 65.5,297.5 C 65.8333,297.5 66.1667,297.5 66.5,297.5C 66.3147,298.17 65.9813,298.17 65.5,297.5 Z"/></g>
<g><path style="opacity:0.004" fill="#3a3835" d="M 64.5,302.5 C 65.8333,303.167 65.8333,303.167 64.5,302.5 Z"/></g>
<g><path style="opacity:0.004" fill="#393837" d="M 653.5,304.5 C 654.302,303.115 654.969,303.282 655.5,305C 655.43,305.765 655.097,306.265 654.5,306.5C 654.672,305.508 654.338,304.842 653.5,304.5 Z"/></g>
<g><path style="opacity:0.004" fill="#3d3c3a" d="M 658.5,311.5 C 659.833,312.167 659.833,312.167 658.5,311.5 Z"/></g>
<g><path style="opacity:0.004" fill="#3d3c3b" d="M 59.5,312.5 C 60.8333,313.167 60.8333,313.167 59.5,312.5 Z"/></g>
<g><path style="opacity:0.004" fill="#3d3d3b" d="M 55.5,314.5 C 56.8333,315.167 56.8333,315.167 55.5,314.5 Z"/></g>
<g><path style="opacity:0.008" fill="#3e3c3b" d="M 55.5,320.5 C 56.8333,321.167 56.8333,321.167 55.5,320.5 Z"/></g>
<g><path style="opacity:0.004" fill="#413f3e" d="M 52.5,328.5 C 53.8333,329.167 53.8333,329.167 52.5,328.5 Z"/></g>
<g><path style="opacity:0.004" fill="#42413f" d="M 51.5,330.5 C 52.8333,331.167 52.8333,331.167 51.5,330.5 Z"/></g>
<g><path style="opacity:0.004" fill="#434240" d="M 51.5,335.5 C 50.475,335.103 50.3083,334.437 51,333.5C 51.4643,334.094 51.631,334.761 51.5,335.5 Z"/></g>
<g><path style="opacity:0.004" fill="#42413c" d="M 667.5,333.5 C 668.833,334.167 668.833,334.167 667.5,333.5 Z"/></g>
<g><path style="opacity:0.999" fill="#feaf8c" d="M 165.5,336.5 C 183.612,333.81 198.779,339.143 211,352.5C 219.648,367.092 217.481,379.925 204.5,391C 186.394,401.917 168.061,402.25 149.5,392C 132.281,375.951 132.281,359.951 149.5,344C 154.542,340.643 159.876,338.143 165.5,336.5 Z"/></g>
<g><path style="opacity:0.004" fill="#3f413c" d="M 669.5,337.5 C 670.833,338.167 670.833,338.167 669.5,337.5 Z"/></g>
<g><path style="opacity:0.999" fill="#feaf8c" d="M 531.5,340.5 C 545.519,339.337 558.186,342.837 569.5,351C 581.521,361.82 583.687,374.32 576,388.5C 564.116,400.906 549.616,405.739 532.5,403C 507.452,398.36 497.952,383.86 504,359.5C 510.688,349.573 519.855,343.24 531.5,340.5 Z"/></g>
<g><path style="opacity:0.004" fill="#494945" d="M 39.5,352.5 C 40.8333,353.167 40.8333,353.167 39.5,352.5 Z"/></g>
<g><path style="opacity:0.004" fill="#4a4946" d="M 39.5,354.5 C 40.8333,355.167 40.8333,355.167 39.5,354.5 Z"/></g>
<g><path style="opacity:0.004" fill="#454340" d="M 678.5,356.5 C 679.833,357.167 679.833,357.167 678.5,356.5 Z"/></g>
<g><path style="opacity:0.004" fill="#423d3d" d="M 676.5,360.5 C 676.897,359.475 677.563,359.308 678.5,360C 677.906,360.464 677.239,360.631 676.5,360.5 Z"/></g>
<g><path style="opacity:0.008" fill="#484846" d="M 39.5,360.5 C 40.8333,361.167 40.8333,361.167 39.5,360.5 Z"/></g>
<g><path style="opacity:0.006" fill="#474745" d="M 41.5,360.5 C 42.525,360.897 42.6917,361.563 42,362.5C 41.5357,361.906 41.369,361.239 41.5,360.5 Z"/></g>
<g><path style="opacity:0.004" fill="#413f3d" d="M 677.5,363.5 C 678.833,364.167 678.833,364.167 677.5,363.5 Z"/></g>
<g><path style="opacity:0.004" fill="#414340" d="M 678.5,367.5 C 679.833,368.167 679.833,368.167 678.5,367.5 Z"/></g>
<g><path style="opacity:0.004" fill="#494746" d="M 40.5,371.5 C 39.8333,370.167 39.8333,370.167 40.5,371.5 Z"/></g>
<g><path style="opacity:0.004" fill="#444441" d="M 682.5,383.5 C 683.833,384.167 683.833,384.167 682.5,383.5 Z"/></g>
<g><path style="opacity:0.004" fill="#4d4d4b" d="M 36.5,384.5 C 37.8333,385.167 37.8333,385.167 36.5,384.5 Z"/></g>
<g><path style="opacity:0.004" fill="#454442" d="M 683.5,389.5 C 684.833,390.167 684.833,390.167 683.5,389.5 Z"/></g>
<g><path style="opacity:0.004" fill="#514f4d" d="M 34.5,398.5 C 35.525,398.897 35.6917,399.563 35,400.5C 34.5357,399.906 34.369,399.239 34.5,398.5 Z"/></g>
<g><path style="opacity:0.004" fill="#413d3e" d="M 684.5,399.5 C 685.525,399.897 685.692,400.563 685,401.5C 684.536,400.906 684.369,400.239 684.5,399.5 Z"/></g>
<g><path style="opacity:0.004" fill="#4d4e4b" d="M 34.5,401.5 C 35.8333,402.167 35.8333,402.167 34.5,401.5 Z"/></g>
<g><path style="opacity:0.008" fill="#535250" d="M 33.5,407.5 C 34.8333,408.167 34.8333,408.167 33.5,407.5 Z"/></g>
<g><path style="opacity:0.007" fill="#42403e" d="M 691.5,408.5 C 694.976,407.357 698.642,407.19 702.5,408C 698.848,408.499 695.182,408.665 691.5,408.5 Z"/></g>
<g><path style="opacity:0.008" fill="#464645" d="M 703.5,408.5 C 703.897,407.475 704.563,407.308 705.5,408C 704.906,408.464 704.239,408.631 703.5,408.5 Z"/></g>
<g><path style="opacity:0.004" fill="#464542" d="M 706.5,407.5 C 707.833,408.167 707.833,408.167 706.5,407.5 Z"/></g>
<g><path style="opacity:0.008" fill="#464844" d="M 710.5,408.5 C 711.833,409.167 711.833,409.167 710.5,408.5 Z"/></g>
<g><path style="opacity:0.008" fill="#464644" d="M 712.5,407.5 C 713.289,407.783 713.956,408.283 714.5,409C 713.184,409.528 712.517,409.028 712.5,407.5 Z"/></g>
<g><path style="opacity:0.012" fill="#474644" d="M 715.5,407.5 C 716.525,407.897 716.692,408.563 716,409.5C 715.536,408.906 715.369,408.239 715.5,407.5 Z"/></g>
<g><path style="opacity:0.004" fill="#53514f" d="M 31.5,409.5 C 32.8333,410.167 32.8333,410.167 31.5,409.5 Z"/></g>
<g><path style="opacity:0.745" fill="#3e3d3c" d="M 683.5,402.5 C 684.309,404.292 684.809,406.292 685,408.5C 686.016,407.366 686.683,407.699 687,409.5C 687.725,407.842 688.892,407.342 690.5,408C 690.167,408.333 689.833,408.667 689.5,409C 695.348,409.173 701.015,409.673 706.5,410.5C 699.159,410.666 691.826,410.5 684.5,410C 683.565,407.619 683.232,405.119 683.5,402.5 Z"/></g>
<g><path style="opacity:0.004" fill="#474744" d="M 719.5,410.5 C 719.897,409.475 720.563,409.308 721.5,410C 720.906,410.464 720.239,410.631 719.5,410.5 Z"/></g>
<g><path style="opacity:0.004" fill="#484744" d="M 725.5,409.5 C 726.833,410.167 726.833,410.167 725.5,409.5 Z"/></g>
<g><path style="opacity:0.008" fill="#4a4947" d="M 729.5,411.5 C 730.251,410.427 731.251,410.26 732.5,411C 731.552,411.483 730.552,411.649 729.5,411.5 Z"/></g>
<g><path style="opacity:0.004" fill="#535350" d="M 31.5,411.5 C 32.8333,412.167 32.8333,412.167 31.5,411.5 Z"/></g>
<g><path style="opacity:0.004" fill="#51514e" d="M 33.5,409.5 C 34.5983,410.601 34.765,411.934 34,413.5C 33.51,412.207 33.3433,410.873 33.5,409.5 Z"/></g>
<g><path style="opacity:0.008" fill="#484745" d="M 742.5,412.5 C 743.833,413.167 743.833,413.167 742.5,412.5 Z"/></g>
<g><path style="opacity:0.004" fill="#51514e" d="M 32.5,418.5 C 31.913,417.233 31.913,416.233 32.5,415.5C 33.7759,416.614 33.7759,417.614 32.5,418.5 Z"/></g>
<g><path style="opacity:0.008" fill="#403f3e" d="M 756.5,416.5 C 757.251,415.427 758.251,415.26 759.5,416C 758.552,416.483 757.552,416.649 756.5,416.5 Z"/></g>
<g><path style="opacity:0.006" fill="#424241" d="M 762.5,415.5 C 763.525,415.897 763.692,416.563 763,417.5C 762.536,416.906 762.369,416.239 762.5,415.5 Z"/></g>
<g><path style="opacity:0.008" fill="#424141" d="M 760.5,416.5 C 761.833,417.167 761.833,417.167 760.5,416.5 Z"/></g>
<g><path style="opacity:0.004" fill="#3e433c" d="M 765.5,417.5 C 766.833,418.167 766.833,418.167 765.5,417.5 Z"/></g>
<g><path style="opacity:0.004" fill="#52514c" d="M 32.5,418.5 C 32.5,418.833 32.5,419.167 32.5,419.5C 31.8299,419.019 31.8299,418.685 32.5,418.5 Z"/></g>
<g><path style="opacity:0.02" fill="#444742" d="M 769.5,418.5 C 770.833,419.167 770.833,419.167 769.5,418.5 Z"/></g>
<g><path style="opacity:0.004" fill="#4f514d" d="M 32.5,419.5 C 33.8333,420.167 33.8333,420.167 32.5,419.5 Z"/></g>
<g><path style="opacity:0.004" fill="#42423e" d="M 779.5,421.5 C 780.833,422.167 780.833,422.167 779.5,421.5 Z"/></g>
<g><path style="opacity:0.02" fill="#3e413b" d="M 784.5,423.5 C 785.833,424.167 785.833,424.167 784.5,423.5 Z"/></g>
<g><path style="opacity:0.006" fill="#3d3c3b" d="M 786.5,424.5 C 786.897,423.475 787.563,423.308 788.5,424C 787.906,424.464 787.239,424.631 786.5,424.5 Z"/></g>
<g><path style="opacity:0.008" fill="#3b3d3a" d="M 790.5,423.5 C 791.833,424.167 791.833,424.167 790.5,423.5 Z"/></g>
<g><path style="opacity:0.004" fill="#535351" d="M 32.5,424.5 C 33.8333,425.167 33.8333,425.167 32.5,424.5 Z"/></g>
<g><path style="opacity:0.004" fill="#3d3d38" d="M 797.5,425.5 C 798.833,426.167 798.833,426.167 797.5,425.5 Z"/></g>
<g><path style="opacity:0.004" fill="#565550" d="M 31.5,427.5 C 32.0768,426.227 32.7435,426.227 33.5,427.5C 33.0302,428.463 32.3635,428.463 31.5,427.5 Z"/></g>
<g><path style="opacity:0.008" fill="#3f3e3d" d="M 793.5,427.5 C 793.511,424.999 794.178,424.832 795.5,427C 794.906,427.464 794.239,427.631 793.5,427.5 Z"/></g>
<g><path style="opacity:0.004" fill="#3e3c3a" d="M 797.5,428.5 C 797.897,427.475 798.563,427.308 799.5,428C 798.906,428.464 798.239,428.631 797.5,428.5 Z"/></g>
<g><path style="opacity:0.004" fill="#3a3d3a" d="M 811.5,431.5 C 812.833,432.167 812.833,432.167 811.5,431.5 Z"/></g>
<g><path style="opacity:0.016" fill="#363a38" d="M 814.5,431.5 C 815.833,432.167 815.833,432.167 814.5,431.5 Z"/></g>
<g><path style="opacity:0.006" fill="#555351" d="M 31.5,432.5 C 33.3769,433.659 33.8769,435.326 33,437.5C 31.9914,435.975 31.4914,434.308 31.5,432.5 Z"/></g>
<g><path style="opacity:0.004" fill="#3d3c39" d="M 811.5,433.5 C 812.833,434.167 812.833,434.167 811.5,433.5 Z"/></g>
<g><path style="opacity:0.004" fill="#3b3d39" d="M 813.5,433.5 C 814.833,434.167 814.833,434.167 813.5,433.5 Z"/></g>
<g><path style="opacity:0.004" fill="#393a35" d="M 829.5,441.5 C 830.833,442.167 830.833,442.167 829.5,441.5 Z"/></g>
<g><path style="opacity:0.004" fill="#3b3c38" d="M 835.5,444.5 C 836.833,445.167 836.833,445.167 835.5,444.5 Z"/></g>
<g><path style="opacity:0.004" fill="#555450" d="M 33.5,446.5 C 34.8333,447.167 34.8333,447.167 33.5,446.5 Z"/></g>
<g><path style="opacity:0.008" fill="#373835" d="M 839.5,447.5 C 840.833,448.167 840.833,448.167 839.5,447.5 Z"/></g>
<g><path style="opacity:0.007" fill="#373535" d="M 845.5,447.5 C 846.773,448.077 846.773,448.743 845.5,449.5C 844.537,449.03 844.537,448.363 845.5,447.5 Z"/></g>
<g><path style="opacity:0.999" fill="#feefe0" d="M 922.5,681.5 C 915.619,714.945 900.452,745.612 877,773.5C 876.308,774.437 876.475,775.103 877.5,775.5C 870.146,784.52 862.146,792.853 853.5,800.5C 853.565,800.062 853.399,799.728 853,799.5C 850.81,801.783 850.143,804.449 851,807.5C 857.7,823.27 864.2,839.103 870.5,855C 869.167,855.667 867.833,855.667 866.5,855C 844.49,845.744 822.323,836.911 800,828.5C 771.188,840.131 741.354,847.964 710.5,852C 711.793,852.49 713.127,852.657 714.5,852.5C 708.678,853.489 702.678,854.156 696.5,854.5C 655.893,855.15 616.226,848.984 577.5,836C 519.697,813.985 477.363,775.818 450.5,721.5C 449.662,721.158 449.328,720.492 449.5,719.5C 450.043,719.44 450.376,719.107 450.5,718.5C 433.855,671.525 434.688,624.859 453,578.5C 454.985,574.191 457.152,570.024 459.5,566C 458.906,565.536 458.239,565.369 457.5,565.5C 463.359,554.323 470.359,543.99 478.5,534.5C 478.435,534.938 478.601,535.272 479,535.5C 514.995,494.239 559.828,467.405 613.5,455C 612.906,454.536 612.239,454.369 611.5,454.5C 685.816,438.104 756.816,447.604 824.5,483C 901.389,527.279 934.056,593.446 922.5,681.5 Z"/></g>
<g><path style="opacity:0.004" fill="#585651" d="M 31.5,450.5 C 32.8333,451.167 32.8333,451.167 31.5,450.5 Z"/></g>
<g><path style="opacity:0.004" fill="#373936" d="M 846.5,450.5 C 847.833,451.167 847.833,451.167 846.5,450.5 Z"/></g>
<g><path style="opacity:0.008" fill="#545451" d="M 33.5,452.5 C 33.369,451.761 33.5357,451.094 34,450.5C 34.6917,451.437 34.525,452.103 33.5,452.5 Z"/></g>
<g><path style="opacity:0.004" fill="#585652" d="M 33.5,452.5 C 32.8333,453.167 32.8333,453.167 33.5,452.5 Z"/></g>
<g><path style="opacity:0.004" fill="#575855" d="M 33.5,454.5 C 34.8333,455.167 34.8333,455.167 33.5,454.5 Z"/></g>
<g><path style="opacity:0.004" fill="#31322e" d="M 853.5,455.5 C 854.833,456.167 854.833,456.167 853.5,455.5 Z"/></g>
<g><path style="opacity:0.004" fill="#565751" d="M 34.5,461.5 C 35.8333,462.167 35.8333,462.167 34.5,461.5 Z"/></g>
<g><path style="opacity:0.004" fill="#333333" d="M 868.5,465.5 C 868.369,464.761 868.536,464.094 869,463.5C 869.692,464.437 869.525,465.103 868.5,465.5 Z"/></g>
<g><path style="opacity:0.004" fill="#333432" d="M 870.5,463.5 C 871.833,464.167 871.833,464.167 870.5,463.5 Z"/></g>
<g><path style="opacity:0.004" fill="#555351" d="M 36.5,458.5 C 37.4682,460.607 37.8016,462.941 37.5,465.5C 36.6365,466.463 35.9698,466.463 35.5,465.5C 36.3742,463.253 36.7076,460.92 36.5,458.5 Z"/></g>
<g><path style="opacity:0.004" fill="#585754" d="M 35.5,467.5 C 36.5983,468.601 36.765,469.934 36,471.5C 35.51,470.207 35.3433,468.873 35.5,467.5 Z"/></g>
<g><path style="opacity:0.004" fill="#313030" d="M 870.5,467.5 C 871.833,468.167 871.833,468.167 870.5,467.5 Z"/></g>
<g><path style="opacity:0.004" fill="#5a5654" d="M 36.5,474.5 C 37.525,474.897 37.6917,475.563 37,476.5C 36.5357,475.906 36.369,475.239 36.5,474.5 Z"/></g>
<g><path style="opacity:0.008" fill="#343533" d="M 881.5,475.5 C 882.833,476.167 882.833,476.167 881.5,475.5 Z"/></g>
<g><path style="opacity:0.016" fill="#312f30" d="M 885.5,480.5 C 885.897,479.475 886.563,479.308 887.5,480C 886.906,480.464 886.239,480.631 885.5,480.5 Z"/></g>
<g><path style="opacity:0.004" fill="#353531" d="M 894.5,479.5 C 895.833,480.167 895.833,480.167 894.5,479.5 Z"/></g>
<g><path style="opacity:0.004" fill="#353632" d="M 889.5,482.5 C 890.833,483.167 890.833,483.167 889.5,482.5 Z"/></g>
<g><path style="opacity:0.016" fill="#343433" d="M 902.5,495.5 C 903.833,496.167 903.833,496.167 902.5,495.5 Z"/></g>
<g><path style="opacity:0.008" fill="#373733" d="M 905.5,498.5 C 906.833,499.167 906.833,499.167 905.5,498.5 Z"/></g>
<g><path style="opacity:0.008" fill="#575550" d="M 41.5,498.5 C 42.525,498.897 42.6917,499.563 42,500.5C 41.5357,499.906 41.369,499.239 41.5,498.5 Z"/></g>
<g><path style="opacity:0.004" fill="#6a6764" d="M 19.5,501.5 C 20.8333,502.167 20.8333,502.167 19.5,501.5 Z"/></g>
<g><path style="opacity:1" fill="#f5f3f0" d="M 611.5,454.5 C 612.239,454.369 612.906,454.536 613.5,455C 559.828,467.405 514.995,494.239 479,535.5C 478.601,535.272 478.435,534.938 478.5,534.5C 513.692,493.042 558.026,466.375 611.5,454.5 Z"/></g>
<g><path style="opacity:0.004" fill="#575751" d="M 42.5,502.5 C 43.8333,503.167 43.8333,503.167 42.5,502.5 Z"/></g>
<g><path style="opacity:0.004" fill="#373736" d="M 909.5,503.5 C 910.833,504.167 910.833,504.167 909.5,503.5 Z"/></g>
<g><path style="opacity:0.008" fill="#555550" d="M 44.5,504.5 C 43.8333,505.167 43.8333,505.167 44.5,504.5 Z"/></g>
<g><path style="opacity:0.004" fill="#565452" d="M 45.5,507.5 C 45.728,509.355 45.0613,510.188 43.5,510C 44.0659,509.005 44.7326,508.172 45.5,507.5 Z"/></g>
<g><path style="opacity:0.012" fill="#323430" d="M 916.5,511.5 C 917.833,512.167 917.833,512.167 916.5,511.5 Z"/></g>
<g><path style="opacity:0.008" fill="#353332" d="M 918.5,514.5 C 919.833,515.167 919.833,515.167 918.5,514.5 Z"/></g>
<g><path style="opacity:0.004" fill="#3b3835" d="M 925.5,523.5 C 926.833,524.167 926.833,524.167 925.5,523.5 Z"/></g>
<g><path style="opacity:0.008" fill="#585855" d="M 47.5,526.5 C 48.8333,527.167 48.8333,527.167 47.5,526.5 Z"/></g>
<g><path style="opacity:0.004" fill="#535351" d="M 51.5,526.5 C 50.8333,527.167 50.8333,527.167 51.5,526.5 Z"/></g>
<g><path style="opacity:0.004" fill="#3a3738" d="M 926.5,527.5 C 926.369,526.761 926.536,526.094 927,525.5C 927.692,526.437 927.525,527.103 926.5,527.5 Z"/></g>
<g><path style="opacity:0.008" fill="#535350" d="M 52.5,528.5 C 51.8333,529.167 51.8333,529.167 52.5,528.5 Z"/></g>
<g><path style="opacity:0.999" fill="#020202" d="M 772.5,532.5 C 786.677,531.849 793.844,538.515 794,552.5C 790.91,563.971 783.41,568.805 771.5,567C 758.57,561.21 755.403,552.043 762,539.5C 764.998,536.262 768.498,533.929 772.5,532.5 Z"/></g>
<g><path style="opacity:0.999" fill="#030302" d="M 580.5,533.5 C 585.556,534.868 589.89,537.534 593.5,541.5C 599.801,556.87 594.801,566.203 578.5,569.5C 564.309,567.448 558.809,559.448 562,545.5C 565.616,537.606 571.783,533.606 580.5,533.5 Z"/></g>
<g><path style="opacity:0.004" fill="#393738" d="M 933.5,536.5 C 933.897,535.475 934.563,535.308 935.5,536C 934.906,536.464 934.239,536.631 933.5,536.5 Z"/></g>
<g><path style="opacity:0.004" fill="#504f4c" d="M 55.5,538.5 C 56.8333,539.167 56.8333,539.167 55.5,538.5 Z"/></g>
<g><path style="opacity:0.004" fill="#525351" d="M 57.5,543.5 C 56.8333,542.167 56.8333,542.167 57.5,543.5 Z"/></g>
<g><path style="opacity:0.004" fill="#53534f" d="M 57.5,543.5 C 58.8333,544.167 58.8333,544.167 57.5,543.5 Z"/></g>
<g><path style="opacity:0.016" fill="#3b3a39" d="M 936.5,543.5 C 937.833,544.167 937.833,544.167 936.5,543.5 Z"/></g>
<g><path style="opacity:0.004" fill="#54514d" d="M 58.5,545.5 C 59.8333,546.167 59.8333,546.167 58.5,545.5 Z"/></g>
<g><path style="opacity:0.004" fill="#555450" d="M 58.5,546.5 C 57.8333,547.167 57.8333,547.167 58.5,546.5 Z"/></g>
<g><path style="opacity:0.004" fill="#545150" d="M 61.5,548.5 C 60.8333,549.167 60.8333,549.167 61.5,548.5 Z"/></g>
<g><path style="opacity:0.006" fill="#3d3b39" d="M 940.5,550.5 C 940.167,550.5 939.833,550.5 939.5,550.5C 939.833,547.833 940.167,547.833 940.5,550.5 Z"/></g>
<g><path style="opacity:0.008" fill="#3d3c3a" d="M 940.5,550.5 C 941.833,551.167 941.833,551.167 940.5,550.5 Z"/></g>
<g><path style="opacity:1" fill="#f3f1ee" d="M 156.5,607.5 C 143.615,595.447 131.115,582.78 119,569.5C 92.0895,536.294 76.5895,498.294 72.5,455.5C 72.3398,453.801 72.5065,452.134 73,450.5C 79.2449,513.34 106.912,564.34 156,603.5C 157.334,604.878 157.501,606.211 156.5,607.5 Z"/></g>
<g><path style="opacity:0.004" fill="#54504e" d="M 65.5,556.5 C 65.631,557.239 65.4643,557.906 65,558.5C 64.3083,557.563 64.475,556.897 65.5,556.5 Z"/></g>
<g><path style="opacity:0.998" fill="#f9f8f6" d="M 580.5,533.5 C 571.783,533.606 565.616,537.606 562,545.5C 558.809,559.448 564.309,567.448 578.5,569.5C 594.801,566.203 599.801,556.87 593.5,541.5C 593.81,540.262 594.31,540.262 595,541.5C 601.192,554.562 597.692,564.062 584.5,570C 566.879,572.045 558.712,564.212 560,546.5C 564.931,536.053 571.764,531.719 580.5,533.5 Z"/></g>
<g><path style="opacity:0.004" fill="#403c3b" d="M 944.5,559.5 C 945.833,560.167 945.833,560.167 944.5,559.5 Z"/></g>
<g><path style="opacity:0.004" fill="#52534f" d="M 68.5,561.5 C 67.8333,562.167 67.8333,562.167 68.5,561.5 Z"/></g>
<g><path style="opacity:0.004" fill="#565552" d="M 63.5,562.5 C 64.8333,563.167 64.8333,563.167 63.5,562.5 Z"/></g>
<g><path style="opacity:0.004" fill="#4f504a" d="M 69.5,563.5 C 68.8333,564.167 68.8333,564.167 69.5,563.5 Z"/></g>
<g><path style="opacity:0.004" fill="#40413d" d="M 948.5,568.5 C 949.833,569.167 949.833,569.167 948.5,568.5 Z"/></g>
<g><path style="opacity:0.004" fill="#54514c" d="M 71.5,569.5 C 72.8333,570.167 72.8333,570.167 71.5,569.5 Z"/></g>
<g><path style="opacity:0.008" fill="#40423e" d="M 949.5,571.5 C 950.833,572.167 950.833,572.167 949.5,571.5 Z"/></g>
<g><path style="opacity:0.004" fill="#53514f" d="M 72.5,574.5 C 73.8333,575.167 73.8333,575.167 72.5,574.5 Z"/></g>
<g><path style="opacity:0.016" fill="#3f3f3d" d="M 950.5,575.5 C 951.833,576.167 951.833,576.167 950.5,575.5 Z"/></g>
<g><path style="opacity:0.999" fill="#feaf8c" d="M 505.5,575.5 C 521.126,573.54 534.293,578.207 545,589.5C 552.924,604.187 549.757,616.02 535.5,625C 515.755,634.882 498.588,631.715 484,615.5C 477.805,601.42 480.971,589.92 493.5,581C 497.475,578.854 501.475,577.02 505.5,575.5 Z"/></g>
<g><path style="opacity:0.999" fill="#feaf8b" d="M 826.5,577.5 C 842.933,575.136 856.1,580.47 866,593.5C 871.584,613.626 864.084,626.126 843.5,631C 827.027,634.006 813.86,628.839 804,615.5C 799.098,603.534 801.598,593.367 811.5,585C 816.313,581.927 821.313,579.427 826.5,577.5 Z"/></g>
<g><path style="opacity:0.999" fill="#f8f6f1" d="M 377.5,596.5 C 382.993,590.893 383.827,584.56 380,577.5C 378.442,575.641 376.609,574.141 374.5,573C 365.057,571.888 355.557,571.388 346,571.5C 337.833,571.667 329.667,571.833 321.5,572C 311.22,576.167 308.387,583.334 313,593.5C 314.543,595.378 316.376,596.878 318.5,598C 327.93,599.127 337.43,599.627 347,599.5C 355.5,599.333 364,599.167 372.5,599C 373.901,598.59 375.234,598.09 376.5,597.5C 375.64,599.614 373.973,600.78 371.5,601C 355.167,601.667 338.833,601.667 322.5,601C 310.106,596.707 306.606,588.541 312,576.5C 314.823,573.175 318.323,571.008 322.5,570C 338.5,569.333 354.5,569.333 370.5,570C 381.287,573.415 385.453,580.581 383,591.5C 382.07,594.362 380.403,596.695 378,598.5C 377.536,597.906 377.369,597.239 377.5,596.5 Z"/></g>
<g><path style="opacity:0.999" fill="#000000" d="M 377.5,596.5 C 376.833,596.5 376.5,596.833 376.5,597.5C 375.234,598.09 373.901,598.59 372.5,599C 364,599.167 355.5,599.333 347,599.5C 337.43,599.627 327.93,599.127 318.5,598C 316.376,596.878 314.543,595.378 313,593.5C 308.387,583.334 311.22,576.167 321.5,572C 329.667,571.833 337.833,571.667 346,571.5C 355.557,571.388 365.057,571.888 374.5,573C 376.609,574.141 378.442,575.641 380,577.5C 383.827,584.56 382.993,590.893 377.5,596.5 Z"/></g>
<g><path style="opacity:0.008" fill="#53514f" d="M 79.5,585.5 C 79.8966,584.475 80.5632,584.308 81.5,585C 80.9056,585.464 80.2389,585.631 79.5,585.5 Z"/></g>
<g><path style="opacity:0.008" fill="#53534e" d="M 79.5,586.5 C 80.8333,587.167 80.8333,587.167 79.5,586.5 Z"/></g>
<g><path style="opacity:0.004" fill="#525050" d="M 82.5,587.5 C 83.8333,588.167 83.8333,588.167 82.5,587.5 Z"/></g>
<g><path style="opacity:0.004" fill="#4f4d4b" d="M 85.5,587.5 C 84.8333,588.167 84.8333,588.167 85.5,587.5 Z"/></g>
<g><path style="opacity:0.012" fill="#4a4b47" d="M 955.5,589.5 C 956.833,590.167 956.833,590.167 955.5,589.5 Z"/></g>
<g><path style="opacity:0.004" fill="#52514d" d="M 88.5,591.5 C 87.8333,592.167 87.8333,592.167 88.5,591.5 Z"/></g>
<g><path style="opacity:0.008" fill="#514f4e" d="M 88.5,594.5 C 87.8333,593.167 87.8333,593.167 88.5,594.5 Z"/></g>
<g><path style="opacity:0.008" fill="#53514e" d="M 90.5,595.5 C 90.8333,595.5 91.1667,595.5 91.5,595.5C 91.3147,596.17 90.9813,596.17 90.5,595.5 Z"/></g>
<g><path style="opacity:0.004" fill="#51524f" d="M 88.5,596.5 C 87.8333,597.167 87.8333,597.167 88.5,596.5 Z"/></g>
<g><path style="opacity:0.012" fill="#4f4e4c" d="M 93.5,597.5 C 92.8333,598.167 92.8333,598.167 93.5,597.5 Z"/></g>
<g><path style="opacity:0.012" fill="#52504d" d="M 97.5,602.5 C 96.8333,603.167 96.8333,603.167 97.5,602.5 Z"/></g>
<g><path style="opacity:0.004" fill="#514e4a" d="M 99.5,604.5 C 98.8333,605.167 98.8333,605.167 99.5,604.5 Z"/></g>
<g><path style="opacity:0.004" fill="#4f4e49" d="M 101.5,606.5 C 100.833,607.167 100.833,607.167 101.5,606.5 Z"/></g>
<g><path style="opacity:0.004" fill="#4d4d4b" d="M 104.5,611.5 C 105.833,612.167 105.833,612.167 104.5,611.5 Z"/></g>
<g><path style="opacity:0.008" fill="#4b4b4a" d="M 104.5,612.5 C 103.833,613.167 103.833,613.167 104.5,612.5 Z"/></g>
<g><path style="opacity:0.008" fill="#4d4d49" d="M 105.5,614.5 C 106.833,615.167 106.833,615.167 105.5,614.5 Z"/></g>
<g><path style="opacity:0.004" fill="#666461" d="M 1019.5,621.5 C 1020.83,622.167 1020.83,622.167 1019.5,621.5 Z"/></g>
<g><path style="opacity:0.004" fill="#52544d" d="M 103.5,631.5 C 104.833,632.167 104.833,632.167 103.5,631.5 Z"/></g>
<g><path style="opacity:0.004" fill="#4f504c" d="M 107.5,632.5 C 108.833,633.167 108.833,633.167 107.5,632.5 Z"/></g>
<g><path style="opacity:0.004" fill="#50514e" d="M 104.5,634.5 C 105.833,635.167 105.833,635.167 104.5,634.5 Z"/></g>
<g><path style="opacity:0.004" fill="#4c4d49" d="M 103.5,640.5 C 104.833,641.167 104.833,641.167 103.5,640.5 Z"/></g>
<g><path style="opacity:0.008" fill="#4f4d48" d="M 103.5,642.5 C 104.833,643.167 104.833,643.167 103.5,642.5 Z"/></g>
<g><path style="opacity:0.004" fill="#565452" d="M 965.5,646.5 C 966.833,647.167 966.833,647.167 965.5,646.5 Z"/></g>
<g><path style="opacity:0.004" fill="#52504c" d="M 101.5,647.5 C 102.833,648.167 102.833,648.167 101.5,647.5 Z"/></g>
<g><path style="opacity:0.004" fill="#4f524d" d="M 95.5,655.5 C 96.8333,656.167 96.8333,656.167 95.5,655.5 Z"/></g>
<g><path style="opacity:0.004" fill="#4d4c4c" d="M 98.5,655.5 C 99.8333,656.167 99.8333,656.167 98.5,655.5 Z"/></g>
<g><path style="opacity:0.004" fill="#4f4f4c" d="M 97.5,657.5 C 98.8333,658.167 98.8333,658.167 97.5,657.5 Z"/></g>
<g><path style="opacity:0.006" fill="#4e4f4d" d="M 96.5,659.5 C 97.525,659.897 97.6917,660.563 97,661.5C 96.5357,660.906 96.369,660.239 96.5,659.5 Z"/></g>
<g><path style="opacity:1" fill="#f5f3ef" d="M 224.5,644.5 C 224.56,643.957 224.893,643.624 225.5,643.5C 256.813,656.864 289.48,664.697 323.5,667C 344.004,667.168 364.337,667.668 384.5,668.5C 329.095,673.743 275.762,665.743 224.5,644.5 Z"/></g>
<g><path style="opacity:0.004" fill="#4b4a46" d="M 95.5,663.5 C 96.8333,664.167 96.8333,664.167 95.5,663.5 Z"/></g>
<g><path style="opacity:0.998" fill="#efece9" d="M 457.5,565.5 C 458.239,565.369 458.906,565.536 459.5,566C 457.152,570.024 454.985,574.191 453,578.5C 434.688,624.859 433.855,671.525 450.5,718.5C 450.376,719.107 450.043,719.44 449.5,719.5C 430.061,667.027 432.728,615.694 457.5,565.5 Z"/></g>
<g><path style="opacity:0.012" fill="#494647" d="M 217.5,685.5 C 218.077,684.227 218.743,684.227 219.5,685.5C 219.03,686.463 218.363,686.463 217.5,685.5 Z"/></g>
<g><path style="opacity:0.004" fill="#52514d" d="M 234.5,690.5 C 235.833,691.167 235.833,691.167 234.5,690.5 Z"/></g>
<g><path style="opacity:0.004" fill="#54514f" d="M 197.5,691.5 C 198.239,691.369 198.906,691.536 199.5,692C 198.563,692.692 197.897,692.525 197.5,691.5 Z"/></g>
<g><path style="opacity:0.004" fill="#55514e" d="M 195.5,692.5 C 196.833,693.167 196.833,693.167 195.5,692.5 Z"/></g>
<g><path style="opacity:0.008" fill="#53534e" d="M 240.5,693.5 C 239.833,692.167 239.833,692.167 240.5,693.5 Z"/></g>
<g><path style="opacity:0.004" fill="#52524e" d="M 240.5,693.5 C 241.833,694.167 241.833,694.167 240.5,693.5 Z"/></g>
<g><path style="opacity:0.004" fill="#545250" d="M 190.5,694.5 C 191.833,695.167 191.833,695.167 190.5,694.5 Z"/></g>
<g><path style="opacity:0.004" fill="#4e4d4b" d="M 97.5,697.5 C 97.631,698.239 97.4643,698.906 97,699.5C 96.3083,698.563 96.475,697.897 97.5,697.5 Z"/></g>
<g><path style="opacity:0.004" fill="#575251" d="M 180.5,698.5 C 181.833,699.167 181.833,699.167 180.5,698.5 Z"/></g>
<g><path style="opacity:0.004" fill="#545652" d="M 263.5,698.5 C 264.833,699.167 264.833,699.167 263.5,698.5 Z"/></g>
<g><path style="opacity:0.008" fill="#565651" d="M 265.5,698.5 C 266.833,699.167 266.833,699.167 265.5,698.5 Z"/></g>
<g><path style="opacity:0.008" fill="#555453" d="M 268.5,699.5 C 269.833,700.167 269.833,700.167 268.5,699.5 Z"/></g>
<g><path style="opacity:0.004" fill="#4d4e4b" d="M 96.5,700.5 C 97.8333,701.167 97.8333,701.167 96.5,700.5 Z"/></g>
<g><path style="opacity:0.004" fill="#4f4f4d" d="M 99.5,700.5 C 98.8333,701.167 98.8333,701.167 99.5,700.5 Z"/></g>
<g><path style="opacity:0.008" fill="#545151" d="M 176.5,700.5 C 177.833,701.167 177.833,701.167 176.5,700.5 Z"/></g>
<g><path style="opacity:0.004" fill="#575452" d="M 274.5,700.5 C 275.833,701.167 275.833,701.167 274.5,700.5 Z"/></g>
<g><path style="opacity:0.004" fill="#5a5654" d="M 279.5,701.5 C 282.001,701.511 282.168,702.178 280,703.5C 279.536,702.906 279.369,702.239 279.5,701.5 Z"/></g>
<g><path style="opacity:0.004" fill="#53524e" d="M 398.5,704.5 C 399.833,705.167 399.833,705.167 398.5,704.5 Z"/></g>
<g><path style="opacity:0.004" fill="#62615b" d="M 318.5,705.5 C 319.833,706.167 319.833,706.167 318.5,705.5 Z"/></g>
<g><path style="opacity:0.008" fill="#615f5a" d="M 329.5,706.5 C 330.833,707.167 330.833,707.167 329.5,706.5 Z"/></g>
<g><path style="opacity:0.004" fill="#605e59" d="M 361.5,706.5 C 362.833,707.167 362.833,707.167 361.5,706.5 Z"/></g>
<g><path style="opacity:0.004" fill="#5f5c57" d="M 376.5,706.5 C 377.833,707.167 377.833,707.167 376.5,706.5 Z"/></g>
<g><path style="opacity:0.004" fill="#514f4d" d="M 107.5,708.5 C 106.833,709.167 106.833,709.167 107.5,708.5 Z"/></g>
<g><path style="opacity:0.004" fill="#545350" d="M 954.5,708.5 C 955.833,709.167 955.833,709.167 954.5,708.5 Z"/></g>
<g><path style="opacity:0.008" fill="#585754" d="M 151.5,709.5 C 152.833,710.167 152.833,710.167 151.5,709.5 Z"/></g>
<g><path style="opacity:0.004" fill="#605e5b" d="M 379.5,709.5 C 380.833,710.167 380.833,710.167 379.5,709.5 Z"/></g>
<g><path style="opacity:0.004" fill="#4f504e" d="M 110.5,710.5 C 109.833,711.167 109.833,711.167 110.5,710.5 Z"/></g>
<g><path style="opacity:0.004" fill="#615e5a" d="M 372.5,710.5 C 373.833,711.167 373.833,711.167 372.5,710.5 Z"/></g>
<g><path style="opacity:0.004" fill="#585655" d="M 111.5,712.5 C 112.833,713.167 112.833,713.167 111.5,712.5 Z"/></g>
<g><path style="opacity:0.012" fill="#545653" d="M 115.5,713.5 C 116.833,714.167 116.833,714.167 115.5,713.5 Z"/></g>
<g><path style="opacity:0.004" fill="#555551" d="M 121.5,715.5 C 122.833,716.167 122.833,716.167 121.5,715.5 Z"/></g>
<g><path style="opacity:0.004" fill="#585652" d="M 135.5,715.5 C 136.833,716.167 136.833,716.167 135.5,715.5 Z"/></g>
<g><path style="opacity:0.004" fill="#585854" d="M 139.5,717.5 C 140.833,718.167 140.833,718.167 139.5,717.5 Z"/></g>
<g><path style="opacity:0.006" fill="#4d4e4c" d="M 409.5,721.5 C 408.475,721.103 408.308,720.437 409,719.5C 409.464,720.094 409.631,720.761 409.5,721.5 Z"/></g>
<g><path style="opacity:0.004" fill="#4f4f4e" d="M 950.5,720.5 C 951.833,721.167 951.833,721.167 950.5,720.5 Z"/></g>
<g><path style="opacity:0.012" fill="#4b4a4a" d="M 409.5,721.5 C 409.833,721.5 410.167,721.5 410.5,721.5C 410.315,722.17 409.981,722.17 409.5,721.5 Z"/></g>
<g><path style="opacity:0.992" fill="#f7f5f3" d="M 922.5,681.5 C 916.048,717.067 901.048,748.4 877.5,775.5C 876.475,775.103 876.308,774.437 877,773.5C 900.452,745.612 915.619,714.945 922.5,681.5 Z"/></g>
<g><path style="opacity:0.008" fill="#4e4c4a" d="M 416.5,739.5 C 415.833,738.167 415.833,738.167 416.5,739.5 Z"/></g>
<g><path style="opacity:0.012" fill="#4d4d4b" d="M 416.5,739.5 C 416.833,739.5 417.167,739.5 417.5,739.5C 417.167,742.167 416.833,742.167 416.5,739.5 Z"/></g>
<g><path style="opacity:0.004" fill="#4a4948" d="M 942.5,739.5 C 943.833,740.167 943.833,740.167 942.5,739.5 Z"/></g>
<g><path style="opacity:0.008" fill="#4f4e4b" d="M 417.5,742.5 C 418.833,743.167 418.833,743.167 417.5,742.5 Z"/></g>
<g><path style="opacity:0.004" fill="#4b4b49" d="M 941.5,742.5 C 942.833,743.167 942.833,743.167 941.5,742.5 Z"/></g>
<g><path style="opacity:0.004" fill="#4f4f4a" d="M 940.5,744.5 C 941.833,745.167 941.833,745.167 940.5,744.5 Z"/></g>
<g><path style="opacity:0.008" fill="#52524e" d="M 942.5,744.5 C 943.833,745.167 943.833,745.167 942.5,744.5 Z"/></g>
<g><path style="opacity:0.004" fill="#52514d" d="M 417.5,746.5 C 418.833,747.167 418.833,747.167 417.5,746.5 Z"/></g>
<g><path style="opacity:0.004" fill="#4f514b" d="M 419.5,746.5 C 420.833,747.167 420.833,747.167 419.5,746.5 Z"/></g>
<g><path style="opacity:0.008" fill="#504e4c" d="M 421.5,748.5 C 420.833,749.167 420.833,749.167 421.5,748.5 Z"/></g>
<g><path style="opacity:0.012" fill="#504e4b" d="M 938.5,748.5 C 939.833,749.167 939.833,749.167 938.5,748.5 Z"/></g>
<g><path style="opacity:0.004" fill="#4d4e4a" d="M 933.5,757.5 C 934.833,758.167 934.833,758.167 933.5,757.5 Z"/></g>
<g><path style="opacity:0.008" fill="#4d4d4a" d="M 425.5,758.5 C 426.833,759.167 426.833,759.167 425.5,758.5 Z"/></g>
<g><path style="opacity:0.004" fill="#51504c" d="M 428.5,760.5 C 427.833,761.167 427.833,761.167 428.5,760.5 Z"/></g>
<g><path style="opacity:0.004" fill="#484643" d="M 432.5,767.5 C 431.833,768.167 431.833,768.167 432.5,767.5 Z"/></g>
<g><path style="opacity:0.008" fill="#4a4845" d="M 434.5,770.5 C 435.167,770.5 435.5,770.833 435.5,771.5C 435.631,772.239 435.464,772.906 435,773.5C 434.097,772.299 432.931,771.465 431.5,771C 432.448,770.517 433.448,770.351 434.5,770.5 Z"/></g>
<g><path style="opacity:0.999" fill="#f3f1ee" d="M 657.5,762.5 C 673.571,762.046 689.571,762.546 705.5,764C 716.021,771.596 717.021,780.263 708.5,790C 706.283,791.275 703.949,792.275 701.5,793C 686.432,793.951 671.432,793.617 656.5,792C 650.667,789.165 647.667,784.498 647.5,778C 647.452,770.583 650.786,765.417 657.5,762.5 Z"/></g>
<g><path style="opacity:0.999" fill="#030303" d="M 660.5,763.5 C 675.225,763.068 689.892,763.568 704.5,765C 712.214,769.605 714.381,776.105 711,784.5C 709.437,787.728 706.937,789.895 703.5,791C 687.433,791.954 671.433,791.621 655.5,790C 647.158,782.961 646.491,775.295 653.5,767C 655.925,765.787 658.259,764.621 660.5,763.5 Z"/></g>
<g><path style="opacity:0.004" fill="#4e4d48" d="M 437.5,774.5 C 436.833,775.167 436.833,775.167 437.5,774.5 Z"/></g>
<g><path style="opacity:0.004" fill="#4f4f4c" d="M 922.5,774.5 C 923.833,775.167 923.833,775.167 922.5,774.5 Z"/></g>
<g><path style="opacity:0.014" fill="#484543" d="M 441.5,780.5 C 441.5,781.167 441.5,781.833 441.5,782.5C 440.167,781.833 440.167,781.167 441.5,780.5 Z"/></g>
<g><path style="opacity:0.02" fill="#494645" d="M 441.5,782.5 C 442.833,783.167 442.833,783.167 441.5,782.5 Z"/></g>
<g><path style="opacity:0.004" fill="#474643" d="M 444.5,784.5 C 443.833,785.167 443.833,785.167 444.5,784.5 Z"/></g>
<g><path style="opacity:0.008" fill="#424141" d="M 449.5,790.5 C 448.833,791.167 448.833,791.167 449.5,790.5 Z"/></g>
<g><path style="opacity:0.004" fill="#4e4e4a" d="M 909.5,792.5 C 910.833,793.167 910.833,793.167 909.5,792.5 Z"/></g>
<g><path style="opacity:0.012" fill="#4c4a49" d="M 908.5,795.5 C 909.833,796.167 909.833,796.167 908.5,795.5 Z"/></g>
<g><path style="opacity:0.004" fill="#4b4a49" d="M 907.5,798.5 C 908.833,799.167 908.833,799.167 907.5,798.5 Z"/></g>
<g><path style="opacity:0.998" fill="#f4f2ee" d="M 696.5,854.5 C 641.663,857.706 589.997,846.539 541.5,821C 506.05,801.217 478.217,773.717 458,738.5C 454.938,733.047 452.438,727.38 450.5,721.5C 477.363,775.818 519.697,813.985 577.5,836C 616.226,848.984 655.893,855.15 696.5,854.5 Z"/></g>
<g><path style="opacity:0.004" fill="#474542" d="M 459.5,806.5 C 460.833,807.167 460.833,807.167 459.5,806.5 Z"/></g>
<g><path style="opacity:0.02" fill="#464543" d="M 465.5,808.5 C 464.833,809.167 464.833,809.167 465.5,808.5 Z"/></g>
<g><path style="opacity:0.016" fill="#464544" d="M 467.5,810.5 C 466.833,811.167 466.833,811.167 467.5,810.5 Z"/></g>
<g><path style="opacity:0.004" fill="#474643" d="M 466.5,813.5 C 467.833,814.167 467.833,814.167 466.5,813.5 Z"/></g>
<g><path style="opacity:0.004" fill="#454742" d="M 471.5,814.5 C 470.833,815.167 470.833,815.167 471.5,814.5 Z"/></g>
<g><path style="opacity:0.004" fill="#484844" d="M 897.5,818.5 C 898.833,819.167 898.833,819.167 897.5,818.5 Z"/></g>
<g><path style="opacity:0.008" fill="#464442" d="M 475.5,821.5 C 474.475,821.103 474.308,820.437 475,819.5C 475.464,820.094 475.631,820.761 475.5,821.5 Z"/></g>
<g><path style="opacity:0.004" fill="#454342" d="M 475.5,821.5 C 476.833,822.167 476.833,822.167 475.5,821.5 Z"/></g>
<g><path style="opacity:0.009" fill="#484543" d="M 902.5,825.5 C 901.652,826.625 900.652,826.625 899.5,825.5C 899.369,824.761 899.536,824.094 900,823.5C 900.708,824.381 901.542,825.047 902.5,825.5 Z"/></g>
<g><path style="opacity:0.004" fill="#444544" d="M 482.5,824.5 C 481.833,825.167 481.833,825.167 482.5,824.5 Z"/></g>
<g><path style="opacity:0.012" fill="#4a4845" d="M 902.5,824.5 C 903.833,825.167 903.833,825.167 902.5,824.5 Z"/></g>
<g><path style="opacity:0.016" fill="#454442" d="M 484.5,827.5 C 485.833,828.167 485.833,828.167 484.5,827.5 Z"/></g>
<g><path style="opacity:0.012" fill="#454444" d="M 902.5,831.5 C 903.833,832.167 903.833,832.167 902.5,831.5 Z"/></g>
<g><path style="opacity:0.016" fill="#42413f" d="M 496.5,837.5 C 497.833,838.167 497.833,838.167 496.5,837.5 Z"/></g>
<g><path style="opacity:0.012" fill="#42423e" d="M 500.5,838.5 C 499.833,839.167 499.833,839.167 500.5,838.5 Z"/></g>
<g><path style="opacity:0.997" fill="#f3f1ed" d="M 853.5,800.5 C 852.61,802.782 852.444,805.115 853,807.5C 860.464,824.429 866.964,841.429 872.5,858.5C 848.257,848.876 823.924,839.543 799.5,830.5C 772.112,841.431 743.778,848.764 714.5,852.5C 713.127,852.657 711.793,852.49 710.5,852C 741.354,847.964 771.188,840.131 800,828.5C 822.323,836.911 844.49,845.744 866.5,855C 867.833,855.667 869.167,855.667 870.5,855C 864.2,839.103 857.7,823.27 851,807.5C 850.143,804.449 850.81,801.783 853,799.5C 853.399,799.728 853.565,800.062 853.5,800.5 Z"/></g>
<g><path style="opacity:0.004" fill="#4a4a46" d="M 906.5,841.5 C 907.833,842.167 907.833,842.167 906.5,841.5 Z"/></g>
<g><path style="opacity:0.024" fill="#464443" d="M 505.5,842.5 C 505.5,842.833 505.5,843.167 505.5,843.5C 504.83,843.019 504.83,842.685 505.5,842.5 Z"/></g>
<g><path style="opacity:0.004" fill="#434240" d="M 505.5,843.5 C 506.833,844.167 506.833,844.167 505.5,843.5 Z"/></g>
<g><path style="opacity:0.004" fill="#464441" d="M 505.5,844.5 C 504.833,845.167 504.833,845.167 505.5,844.5 Z"/></g>
<g><path style="opacity:0.004" fill="#484641" d="M 508.5,844.5 C 507.833,845.167 507.833,845.167 508.5,844.5 Z"/></g>
<g><path style="opacity:0.008" fill="#464341" d="M 503.5,846.5 C 504.833,847.167 504.833,847.167 503.5,846.5 Z"/></g>
<g><path style="opacity:0.004" fill="#494645" d="M 530.5,857.5 C 530.103,858.525 529.437,858.692 528.5,858C 529.094,857.536 529.761,857.369 530.5,857.5 Z"/></g>
<g><path style="opacity:0.004" fill="#494746" d="M 530.5,860.5 C 531.833,861.167 531.833,861.167 530.5,860.5 Z"/></g>
<g><path style="opacity:0.004" fill="#4b4948" d="M 544.5,864.5 C 543.833,865.167 543.833,865.167 544.5,864.5 Z"/></g>
<g><path style="opacity:0.004" fill="#4a4847" d="M 548.5,866.5 C 547.833,867.167 547.833,867.167 548.5,866.5 Z"/></g>
<g><path style="opacity:0.004" fill="#4e4b4a" d="M 553.5,868.5 C 553.013,869.473 552.513,870.473 552,871.5C 551.275,869.843 551.775,868.843 553.5,868.5 Z"/></g>
<g><path style="opacity:0.004" fill="#4d4d4b" d="M 554.5,869.5 C 555.833,870.167 555.833,870.167 554.5,869.5 Z"/></g>
<g><path style="opacity:0.004" fill="#52514d" d="M 569.5,874.5 C 568.833,875.167 568.833,875.167 569.5,874.5 Z"/></g>
<g><path style="opacity:0.008" fill="#514f4c" d="M 810.5,875.5 C 810.5,875.833 810.5,876.167 810.5,876.5C 807.833,876.167 807.833,875.833 810.5,875.5 Z"/></g>
<g><path style="opacity:0.004" fill="#524f4d" d="M 562.5,876.5 C 563.833,877.167 563.833,877.167 562.5,876.5 Z"/></g>
<g><path style="opacity:0.008" fill="#50504d" d="M 567.5,876.5 C 568.833,877.167 568.833,877.167 567.5,876.5 Z"/></g>
<g><path style="opacity:0.012" fill="#524e4e" d="M 810.5,876.5 C 811.167,876.5 811.5,876.833 811.5,877.5C 811.167,877.167 810.833,876.833 810.5,876.5 Z"/></g>
<g><path style="opacity:0.004" fill="#51524c" d="M 811.5,877.5 C 812.833,878.167 812.833,878.167 811.5,877.5 Z"/></g>
<g><path style="opacity:0.004" fill="#52504f" d="M 813.5,878.5 C 813.897,877.475 814.563,877.308 815.5,878C 814.906,878.464 814.239,878.631 813.5,878.5 Z"/></g>
<g><path style="opacity:0.004" fill="#504f4d" d="M 567.5,878.5 C 568.833,879.167 568.833,879.167 567.5,878.5 Z"/></g>
<g><path style="opacity:0.004" fill="#524d4b" d="M 569.5,878.5 C 570.833,879.167 570.833,879.167 569.5,878.5 Z"/></g>
<g><path style="opacity:0.004" fill="#524e4d" d="M 808.5,878.5 C 809.833,879.167 809.833,879.167 808.5,878.5 Z"/></g>
<g><path style="opacity:0.004" fill="#585654" d="M 766.5,881.5 C 767.833,882.167 767.833,882.167 766.5,881.5 Z"/></g>
<g><path style="opacity:0.012" fill="#555451" d="M 593.5,882.5 C 594.833,883.167 594.833,883.167 593.5,882.5 Z"/></g>
<g><path style="opacity:0.004" fill="#534f4e" d="M 826.5,882.5 C 827.833,883.167 827.833,883.167 826.5,882.5 Z"/></g>
<g><path style="opacity:0.004" fill="#54524f" d="M 828.5,883.5 C 829.833,884.167 829.833,884.167 828.5,883.5 Z"/></g>
<g><path style="opacity:0.004" fill="#565552" d="M 601.5,885.5 C 600.833,884.167 600.833,884.167 601.5,885.5 Z"/></g>
<g><path style="opacity:0.008" fill="#545150" d="M 603.5,885.5 C 602.833,884.167 602.833,884.167 603.5,885.5 Z"/></g>
<g><path style="opacity:0.006" fill="#595554" d="M 752.5,885.5 C 752.897,884.475 753.563,884.308 754.5,885C 753.906,885.464 753.239,885.631 752.5,885.5 Z"/></g>
<g><path style="opacity:0.004" fill="#534f4e" d="M 833.5,884.5 C 833.103,885.525 832.437,885.692 831.5,885C 832.094,884.536 832.761,884.369 833.5,884.5 Z"/></g>
<g><path style="opacity:0.016" fill="#565452" d="M 600.5,885.5 C 599.833,886.167 599.833,886.167 600.5,885.5 Z"/></g>
<g><path style="opacity:0.004" fill="#56544f" d="M 601.5,885.5 C 601.833,885.5 602.167,885.5 602.5,885.5C 602.315,886.17 601.981,886.17 601.5,885.5 Z"/></g>
<g><path style="opacity:0.004" fill="#545450" d="M 603.5,885.5 C 604.833,886.167 604.833,886.167 603.5,885.5 Z"/></g>
<g><path style="opacity:0.004" fill="#54534f" d="M 606.5,886.5 C 606.897,885.475 607.563,885.308 608.5,886C 607.906,886.464 607.239,886.631 606.5,886.5 Z"/></g>
<g><path style="opacity:0.01" fill="#504f4d" d="M 834.5,886.5 C 834.842,885.662 835.508,885.328 836.5,885.5C 836.5,885.833 836.5,886.167 836.5,886.5C 835.833,886.5 835.167,886.5 834.5,886.5 Z"/></g>
<g><path style="opacity:0.004" fill="#53524f" d="M 834.5,886.5 C 833.833,887.167 833.833,887.167 834.5,886.5 Z"/></g>
<g><path style="opacity:0.024" fill="#514f4d" d="M 836.5,886.5 C 837.239,886.369 837.906,886.536 838.5,887C 837.563,887.692 836.897,887.525 836.5,886.5 Z"/></g>
<g><path style="opacity:0.004" fill="#5d5b5a" d="M 718.5,890.5 C 719.833,891.167 719.833,891.167 718.5,890.5 Z"/></g>
<g><path style="opacity:0.008" fill="#56534f" d="M 847.5,890.5 C 848.833,891.167 848.833,891.167 847.5,890.5 Z"/></g>
<g><path style="opacity:0.006" fill="#5e5b58" d="M 652.5,892.5 C 652.897,891.475 653.563,891.308 654.5,892C 653.906,892.464 653.239,892.631 652.5,892.5 Z"/></g>
<g><path style="opacity:0.004" fill="#5f5d5b" d="M 702.5,891.5 C 703.833,892.167 703.833,892.167 702.5,891.5 Z"/></g>
<g><path style="opacity:0.004" fill="#53524e" d="M 849.5,891.5 C 850.833,892.167 850.833,892.167 849.5,891.5 Z"/></g>
<g><path style="opacity:0.008" fill="#545350" d="M 852.5,891.5 C 851.833,892.167 851.833,892.167 852.5,891.5 Z"/></g>
<g><path style="opacity:0.008" fill="#51504f" d="M 902.5,891.5 C 903.833,892.167 903.833,892.167 902.5,891.5 Z"/></g>
<g><path style="opacity:0.004" fill="#615e5b" d="M 671.5,893.5 C 671.897,892.475 672.563,892.308 673.5,893C 672.906,893.464 672.239,893.631 671.5,893.5 Z"/></g>
<g><path style="opacity:0.004" fill="#5c5c59" d="M 678.5,892.5 C 679.833,893.167 679.833,893.167 678.5,892.5 Z"/></g>
<g><path style="opacity:0.004" fill="#5c5c59" d="M 686.5,892.5 C 687.833,893.167 687.833,893.167 686.5,892.5 Z"/></g>
<g><path style="opacity:0.004" fill="#625e5b" d="M 683.5,893.5 C 684.833,894.167 684.833,894.167 683.5,893.5 Z"/></g>
<g><path style="opacity:0.004" fill="#52514e" d="M 854.5,893.5 C 855.833,894.167 855.833,894.167 854.5,893.5 Z"/></g>
<g><path style="opacity:0.004" fill="#61605b" d="M 687.5,894.5 C 688.833,895.167 688.833,895.167 687.5,894.5 Z"/></g>
<g><path style="opacity:0.004" fill="#575451" d="M 847.5,894.5 C 848.833,895.167 848.833,895.167 847.5,894.5 Z"/></g>
<g><path style="opacity:0.004" fill="#545350" d="M 850.5,894.5 C 851.833,895.167 851.833,895.167 850.5,894.5 Z"/></g>
<g><path style="opacity:0.004" fill="#565552" d="M 869.5,898.5 C 870.833,899.167 870.833,899.167 869.5,898.5 Z"/></g>
<g><path style="opacity:0.008" fill="#565451" d="M 873.5,899.5 C 874.833,900.167 874.833,900.167 873.5,899.5 Z"/></g>
<g><path style="opacity:0.004" fill="#545550" d="M 884.5,899.5 C 885.833,900.167 885.833,900.167 884.5,899.5 Z"/></g>
<g><path style="opacity:0.004" fill="#545451" d="M 879.5,900.5 C 880.833,901.167 880.833,901.167 879.5,900.5 Z"/></g>
<g><path style="opacity:0.004" fill="#131412" d="M 307.5,933.5 C 308.833,934.167 308.833,934.167 307.5,933.5 Z"/></g>
<g><path style="opacity:0.004" fill="#52524e" d="M 842.5,964.5 C 843.833,965.167 843.833,965.167 842.5,964.5 Z"/></g>
</svg>
