<svg width="41" height="41" viewBox="0 0 41 41" fill="none" xmlns="http://www.w3.org/2000/svg">
<path fill-rule="evenodd" clip-rule="evenodd" d="M40.0499 21.9906L39.0546 21.8937C39.1143 21.2806 39.1449 20.6588 39.1449 20.0295C39.1449 19.4002 39.1143 18.7783 39.0546 18.1652L40.0499 18.0684C40.1127 18.7136 40.1449 19.3678 40.1449 20.0295C40.1449 20.6912 40.1127 21.3454 40.0499 21.9906ZM39.2886 14.2218L38.3316 14.5118C37.9677 13.3107 37.488 12.1598 36.9053 11.072L37.7868 10.5999C38.4002 11.7451 38.9054 12.957 39.2886 14.2218ZM35.6057 7.34142L34.833 7.97624C34.0428 7.01444 33.1599 6.13157 32.1981 5.34133L32.8329 4.56868C33.8451 5.40026 34.7741 6.32929 35.6057 7.34142ZM29.5745 2.3875L29.1023 3.26902C28.0145 2.68638 26.8636 2.20667 25.6626 1.84278L25.9525 0.885744C27.2174 1.26896 28.4293 1.77411 29.5745 2.3875ZM22.106 0.124406L22.0091 1.1197C21.396 1.06004 20.7742 1.02948 20.1449 1.02948C19.5156 1.02948 18.8937 1.06004 18.2806 1.1197L18.1838 0.124407C18.829 0.061614 19.4832 0.02948 20.1449 0.02948C20.8066 0.02948 21.4608 0.0616139 22.106 0.124406ZM14.3372 0.885745L14.6272 1.84278C13.4261 2.20668 12.2752 2.68638 11.1874 3.26902L10.7153 2.3875C11.8605 1.77411 13.0723 1.26896 14.3372 0.885745ZM7.4568 4.56868L8.09163 5.34133C7.12982 6.13157 6.24696 7.01444 5.45672 7.97625L4.68407 7.34142C5.51565 6.32929 6.44468 5.40026 7.4568 4.56868ZM2.50289 10.5999L3.3844 11.072C2.80177 12.1598 2.32206 13.3107 1.95817 14.5118L1.00113 14.2218C1.38435 12.957 1.88949 11.7451 2.50289 10.5999ZM0.239793 18.0684C0.177001 18.7136 0.144867 19.3678 0.144867 20.0295C0.144867 20.6912 0.177001 21.3454 0.239793 21.9906L1.23509 21.8937C1.17543 21.2806 1.14487 20.6588 1.14487 20.0295C1.14487 19.4002 1.17543 18.7783 1.23509 18.1652L0.239793 18.0684ZM1.00113 25.8371L1.95817 25.5472C2.32206 26.7483 2.80177 27.8992 3.3844 28.9869L2.50289 29.4591C1.88949 28.3139 1.38435 27.102 1.00113 25.8371ZM4.68406 32.7175L5.45672 32.0827C6.24696 33.0445 7.12983 33.9274 8.09163 34.7176L7.45681 35.4903C6.44468 34.6587 5.51565 33.7297 4.68406 32.7175ZM10.7153 37.6715L11.1874 36.7899C12.2752 37.3726 13.4261 37.8523 14.6272 38.2162L14.3372 39.1732C13.0723 38.79 11.8605 38.2849 10.7153 37.6715ZM18.1838 39.9346L18.2806 38.9393C18.8937 38.9989 19.5156 39.0295 20.1449 39.0295C20.7742 39.0295 21.396 38.9989 22.0091 38.9393L22.106 39.9346C21.4608 39.9973 20.8066 40.0295 20.1449 40.0295C19.4832 40.0295 18.829 39.9973 18.1838 39.9346ZM25.9525 39.1732L25.6626 38.2162C26.8636 37.8523 28.0145 37.3726 29.1023 36.7899L29.5745 37.6715C28.4293 38.2849 27.2174 38.79 25.9525 39.1732ZM32.8329 35.4903L32.1981 34.7176C33.1599 33.9274 34.0428 33.0445 34.833 32.0827L35.6057 32.7175C34.7741 33.7297 33.8451 34.6587 32.8329 35.4903ZM37.7868 29.4591L36.9053 28.9869C37.488 27.8992 37.9677 26.7483 38.3316 25.5472L39.2886 25.8371C38.9054 27.102 38.4002 28.3139 37.7868 29.4591Z" fill="black" fill-opacity="0.3" style="fill:black;fill:black;fill-opacity:0.3;"/>
<path fill-rule="evenodd" clip-rule="evenodd" d="M19.3949 20.7795V28.5295H20.8949V20.7795H28.6449V19.2795H20.8949V11.5295H19.3949V19.2795H11.6449V20.7795H19.3949Z" fill="black" fill-opacity="0.3" style="fill:black;fill:black;fill-opacity:0.3;"/>
</svg>
